<svg xmlns="http://www.w3.org/2000/svg" xml:space="preserve" id="Layer_1" x="0" y="0" style="enable-background:new 0 0 140 48" version="1.1" viewBox="0 0 140 48"><style>.st1{fill:none}</style><path d="M135.3 37.1c-.8 0-1.6-.1-2.3-.2-3.9-.6-7.5-2.7-9.8-6l-6.2-8.5c-2.4-3.4-6.4-5.4-10.5-5.4H74.2c-4.1 0-8 1.9-10.4 5.2L57.2 31c-2.8 3.8-7.3 6-12 6h-20c-8.3 0-15-6.8-15-15.1V0H0v48h140V37.1h-4.7z"/><path d="M135.3 35.1c-.8 0-1.6-.1-2.3-.2-3.3-.6-6.2-2.4-8.2-5.2l-6.2-8.5c-2.8-3.9-7.3-6.2-12.2-6.2H74.2c-3 0-5.8.9-8.2 2.5-1.4 1-2.7 2.2-3.8 3.6L55.6 30c-.3.4-.6.8-1 1.2-.3.4-.7.7-1.1 1-.8.6-1.6 1.2-2.5 1.6-.4.2-.9.4-1.4.6-1.4.5-2.9.8-4.5.8h-20c-4 0-7.6-1.9-10-4.8-1.3-1.6-2.3-3.6-2.7-5.7-.2-.8-.3-1.7-.3-2.6V0h-2v22c0 8.3 6.7 15.1 15 15.1h20c4.7 0 9.2-2.2 12-6l6.6-8.9C66.2 18.9 70 17 74.1 17h32.2c4.2 0 8.1 2 10.5 5.4l6.2 8.5c2.4 3.3 5.9 5.4 9.8 6 .8.1 1.5.2 2.3.2h4.7v-2h-4.5z" style="fill:#404833"/></svg>