<svg xmlns="http://www.w3.org/2000/svg" xml:space="preserve" id="Layer_1" x="0" y="0" style="enable-background:new 0 0 470 80" version="1.1" viewBox="0 0 470 80"><style>.st1{fill:none}</style><path d="M457 0v3.3c0 .9-.1 1.8-.3 2.7-1.2 5.9-6.5 10.3-12.7 10.3H313c-3.2 0-6.5 1.1-9 3l-59.5 45c-2.2 1.7-5 2.6-7.8 2.6H0v13h470V0h-13z"/><path d="M457 0v3.3c0 .9-.1 1.8-.3 2.7-1.2 5.9-6.5 10.3-12.7 10.3H313c-3.2 0-6.5 1.1-9 3l-59.5 45c-2.2 1.7-5 2.6-7.8 2.6H0v2h236.6c3.3 0 6.5-1.1 9.1-3l59.5-45c2.2-1.7 5-2.6 7.8-2.6h131c7.4 0 13.5-5.3 14.7-12.3.2-.9.3-1.8.3-2.7V0h-2z" style="fill:#404833"/></svg>