<svg xmlns="http://www.w3.org/2000/svg" xml:space="preserve" id="Layer_1" x="0" y="0" style="enable-background:new 0 0 597 80" version="1.1" viewBox="0 0 597 80"><style>.st1{fill:none}</style><path d="M596.6 67c-4.2 0-8.1-2-10.5-5.4l-6.2-8.5c-2.8-3.9-7.4-6.2-12.2-6.2H369.5c-4.7 0-9.2 2.3-12 6l-6.6 8.9c-2.4 3.3-6.3 5.2-10.4 5.2h-14.8c-3.7 0-7.3-1.6-9.8-4.4l-6.6-7.5c-2-2.3-4.9-3.6-8-3.6h-1.5c-4.9 0-8.9 3.8-9 8.8-.1 3.8-3.2 6.8-7 6.8h-4.4c-2.2 0-3.9-1.7-4-3.9-.1-3.2-2.7-5.9-6-5.9H141.7c-3.2 0-5.9 2.6-5.9 5.9 0 2.1-1.7 3.9-3.9 3.9H26c-7.2 0-13-5.8-13-13V.1H0v80h597V67h-.4z"/><path d="M596.6 67c-4.2 0-8.1-2-10.5-5.4l-6.2-8.5c-2.8-3.9-7.4-6.2-12.2-6.2H369.5c-4.7 0-9.2 2.3-12 6l-6.6 8.9c-2.4 3.3-6.3 5.2-10.4 5.2h-14.8c-3.7 0-7.3-1.6-9.8-4.4l-6.6-7.5c-2-2.3-4.9-3.6-8-3.6h-1.5c-4.9 0-8.9 3.8-9 8.8-.1 3.8-3.2 6.8-7 6.8h-4.4c-2.2 0-3.9-1.7-4-3.9-.1-3.2-2.7-5.9-6-5.9H141.7c-3.2 0-5.9 2.6-5.9 5.9 0 2.1-1.7 3.9-3.9 3.9H26c-7.2 0-13-5.8-13-13V.1h-2v54c0 8.3 6.7 15 15 15h105.9c3.2 0 5.9-2.6 5.9-5.9 0-2.1 1.7-3.9 3.9-3.9h127.7c2.1 0 3.9 1.7 4 3.9.1 3.2 2.7 5.9 6 5.9h4.4c4.9 0 8.9-3.8 9-8.8.1-3.8 3.2-6.8 7-6.8h1.5c2.5 0 4.8 1.1 6.5 2.9l6.6 7.5c2.8 3.2 7 5.1 11.3 5.1h14.8c4.7 0 9.2-2.3 12-6l6.6-8.9c2.4-3.3 6.3-5.2 10.4-5.2h198.2c4.2 0 8.1 2 10.5 5.4l6.2 8.5c2.8 3.9 7.4 6.2 12.2 6.2h.4v-2h-.4z" style="fill:#404833"/></svg>