<svg xmlns="http://www.w3.org/2000/svg" xml:space="preserve" id="Layer_1" x="0" y="0" style="enable-background:new 0 0 470 82" version="1.1" viewBox="0 0 470 82"><style>.st1{fill:none}</style><path d="M0 0v13h.8c4.5 0 8.8 2.4 11.1 6.3l6.4 10.6c2.7 4.5 7.6 7.3 12.8 7.3h179.3c5.2 0 10-2.6 12.8-7.1l6.8-10.9c2.4-3.8 6.5-6.1 11-6.1h39.6c4.2 0 8.2 2.1 10.7 5.6l6.8 9.7c1.9 2.7 5 4.3 8.3 4.3 5.5 0 10-4.3 10.1-9.9v-2.2c.1-4.1 3.5-7.5 7.7-7.5h1.7c3.2 0 5.9 2.6 6 5.9 0 4.3 3.6 7.9 8 7.9h9.2c4.4 0 7.9-3.5 7.9-7.9 0-3.2 2.6-5.9 5.9-5.9H444c7.2 0 13 5.8 13 13v56h13V0H0z"/><path d="M444 11h-81.3c-4.3 0-7.9 3.5-7.9 7.9 0 3.2-2.6 5.9-5.9 5.9h-9.2c-3.3 0-5.9-2.6-6-5.9-.1-4.3-3.6-7.9-8-7.9H324c-5.2 0-9.5 4.2-9.7 9.5v2.2c-.1 4.5-3.7 7.9-8.1 7.9-2.7 0-5.1-1.3-6.7-3.5l-6.8-9.7c-2.8-4-7.4-6.4-12.3-6.4H241c-5.2 0-10 2.6-12.7 7.1L221.5 29c-2.4 3.8-6.5 6.1-11.1 6.1H31.1c-4.5 0-8.8-2.4-11.1-6.3l-6.4-10.6C10.9 13.8 6 11 .8 11H0v2h.8c4.5 0 8.8 2.4 11.1 6.3l6.4 10.6c2.7 4.5 7.6 7.3 12.8 7.3h179.3c5.2 0 10-2.6 12.8-7.1l6.8-10.9c2.4-3.8 6.5-6.1 11-6.1h39.6c4.2 0 8.2 2.1 10.7 5.6l6.8 9.7c1.9 2.7 5 4.3 8.3 4.3 5.5 0 10-4.3 10.1-9.9v-2.2c.1-4.1 3.5-7.5 7.7-7.5h1.7c3.2 0 5.9 2.6 6 5.9 0 4.3 3.6 7.9 8 7.9h9.2c4.4 0 7.9-3.5 7.9-7.9 0-3.2 2.6-5.9 5.9-5.9H444c7.2 0 13 5.8 13 13v56h2V26c0-8.3-6.7-15-15-15z" style="fill:#404833"/></svg>