<svg xmlns="http://www.w3.org/2000/svg" xml:space="preserve" id="Layer_1" x="0" y="0" style="enable-background:new 0 0 140 48" version="1.1" viewBox="0 0 140 48"><style>.st1{fill:none}</style><path d="M10.2 40.6c0-8.3 6.7-15 15-15h79.7c2.2 0 4.3-.5 6.2-1.6l20.8-11.3c2.2-1.2 4.7-1.8 7.2-1.8h1V0H0v48h10.2v-7.4z"/><path d="M139 10.9c-2.5 0-5 .6-7.2 1.8L111.1 24c-1.9 1-4 1.6-6.2 1.6H25.2c-8.3 0-15 6.7-15 15V48h2v-7.4c0-7.2 5.8-13 13-13h79.7c2.5 0 5-.6 7.2-1.8l20.8-11.3c1.9-1 4-1.6 6.2-1.6h1v-2H139z" style="fill:#404833"/></svg>