<svg xmlns="http://www.w3.org/2000/svg" xml:space="preserve" id="Layer_1" x="0" y="0" style="enable-background:new 0 0 198 48" version="1.1" viewBox="0 0 198 48"><style>.st1{fill:none}</style><path d="M0 0v10.9h9.4c4.9 0 9.5 2.4 12.3 6.4l6.8 9.7c1.5 2.2 4 3.5 6.7 3.5 4.4 0 8-3.5 8.1-7.9v-2.2c.1-5.3 4.4-9.4 9.7-9.4h1.7c4.4 0 7.9 3.5 8 7.9 0 3.3 2.7 5.9 6 5.9h9.2c3.2 0 5.9-2.6 5.9-5.9 0-4.4 3.5-7.9 7.9-7.9H173c8.3 0 15 6.7 15 15v22h10V0H0z"/><path d="M172.8 10.9H91.6c-4.4 0-7.9 3.5-7.9 7.9 0 3.2-2.6 5.9-5.9 5.9h-9.2c-3.3 0-5.9-2.6-6-5.9-.1-4.4-3.6-7.9-8-7.9H53c-5.3 0-9.5 4.2-9.7 9.4v2.2c-.1 4.4-3.7 7.9-8.1 7.9-2.7 0-5.1-1.3-6.7-3.5l-6.8-9.7c-2.8-4-7.4-6.4-12.3-6.4H0v2h9.4c3.2 0 6.2 1.2 8.6 3.2.8.7 1.5 1.5 2.1 2.3l6.8 9.7c.2.3.5.7.8 1 .5.6 1.2 1.1 1.8 1.6.3.2.7.4 1 .6.7.4 1.5.7 2.3.9.8.2 1.6.3 2.4.3 5.5 0 10-4.4 10.1-9.9v-2.2c0-.3 0-.5.1-.8 0-.3.1-.5.1-.7.1-.5.3-1 .5-1.4.5-1.1 1.3-2.1 2.2-2.9.4-.3.8-.6 1.2-.8 1.1-.6 2.3-.9 3.6-.9h1.7c1.8 0 3.5.8 4.6 2.1.4.4.7.9.9 1.5.2.5.4 1.1.5 1.7v.6c0 .8.1 1.6.4 2.3 1 3.2 4 5.5 7.6 5.5h9.2c4.4 0 7.9-3.5 7.9-7.9 0-.8.2-1.6.5-2.3.1-.4.3-.7.5-1 .4-.6 1-1.2 1.6-1.6.9-.6 2.1-1 3.3-1H173c7.2 0 13 5.8 13 13V48h2V25.9c-.2-8.3-6.9-15-15.2-15z" style="fill:#404833"/></svg>