<svg xmlns="http://www.w3.org/2000/svg" xml:space="preserve" id="Layer_1" x="0" y="0" style="enable-background:new 0 0 597 82" version="1.1" viewBox="0 0 597 82"><style>.st1{fill:none}</style><path d="M0 0v82h11v-1.3c0-2.4.6-4.7 1.6-6.7h2.3c2.3-3.8 6.4-6.3 11.1-6.3h38.3c3.4 0 6.8-1.2 9.5-3.4l59.3-48.4c2.3-1.9 5.2-2.9 8.2-2.9H597V0H0z"/><path d="M141.3 11c-3.4 0-6.8 1.2-9.5 3.4L72.5 62.7c-2.3 1.9-5.2 2.9-8.2 2.9H26c-5.9 0-11 3.4-13.4 8.3-1 2-1.6 4.3-1.6 6.7V82h2v-1.3c0-2.4.7-4.7 1.9-6.7 2.3-3.8 6.4-6.3 11.1-6.3h38.3c3.4 0 6.8-1.2 9.5-3.4l59.3-48.4c2.3-1.9 5.2-2.9 8.2-2.9H597v-2H141.3z" style="fill:#404833"/></svg>